<mxfile host="app.diagrams.net" modified="2020-08-31T08:02:53.865Z" agent="5.0 (Macintosh; Intel Mac OS X 10_15_6) AppleWebKit/537.36 (KHTML, like Gecko) Chrome/85.0.4183.83 Safari/537.36" etag="KXmJOb5rJDIMt9SqBDiV" version="13.6.5" type="github">
  <diagram id="RHDtiLBlRx6c_QqVsQmq" name="ページ1">
    <mxGraphModel dx="1909" dy="572" grid="1" gridSize="10" guides="1" tooltips="1" connect="1" arrows="1" fold="1" page="1" pageScale="1" pageWidth="827" pageHeight="1169" math="0" shadow="0">
      <root>
        <mxCell id="0" />
        <mxCell id="1" parent="0" />
        <mxCell id="-R9fpxJyPCpMS1VGoLr2-45" value="&lt;hr&gt;&lt;table&gt;&lt;tbody&gt;&lt;tr&gt;&lt;td&gt;&lt;br&gt;&lt;/td&gt;&lt;td&gt;&lt;br&gt;&lt;/td&gt;&lt;td&gt;&lt;br&gt;&lt;/td&gt;&lt;/tr&gt;&lt;tr&gt;&lt;td&gt;&lt;br&gt;&lt;/td&gt;&lt;td&gt;&lt;br&gt;&lt;/td&gt;&lt;td&gt;&lt;br&gt;&lt;/td&gt;&lt;/tr&gt;&lt;tr&gt;&lt;td&gt;&lt;br&gt;&lt;/td&gt;&lt;td&gt;&lt;br&gt;&lt;/td&gt;&lt;td&gt;&lt;br&gt;&lt;/td&gt;&lt;/tr&gt;&lt;tr&gt;&lt;td&gt;&lt;br&gt;&lt;/td&gt;&lt;td&gt;&lt;br&gt;&lt;/td&gt;&lt;td&gt;&lt;br&gt;&lt;/td&gt;&lt;/tr&gt;&lt;/tbody&gt;&lt;/table&gt;" style="text;html=1;align=center;verticalAlign=middle;resizable=0;points=[];autosize=1;" vertex="1" parent="1">
          <mxGeometry x="185" y="245" width="30" height="90" as="geometry" />
        </mxCell>
        <mxCell id="-R9fpxJyPCpMS1VGoLr2-76" value="family_name :string" style="text;html=1;align=center;verticalAlign=middle;resizable=0;points=[];autosize=1;" vertex="1" parent="1">
          <mxGeometry x="10" y="160" width="120" height="20" as="geometry" />
        </mxCell>
        <mxCell id="-R9fpxJyPCpMS1VGoLr2-77" value="first_name :string" style="text;html=1;align=center;verticalAlign=middle;resizable=0;points=[];autosize=1;" vertex="1" parent="1">
          <mxGeometry x="10" y="180" width="110" height="20" as="geometry" />
        </mxCell>
        <mxCell id="-R9fpxJyPCpMS1VGoLr2-78" value="family_reading :string" style="text;html=1;align=center;verticalAlign=middle;resizable=0;points=[];autosize=1;" vertex="1" parent="1">
          <mxGeometry x="10" y="200" width="130" height="20" as="geometry" />
        </mxCell>
        <mxCell id="-R9fpxJyPCpMS1VGoLr2-79" value="first_reading :string" style="text;html=1;align=center;verticalAlign=middle;resizable=0;points=[];autosize=1;" vertex="1" parent="1">
          <mxGeometry x="10" y="220" width="120" height="20" as="geometry" />
        </mxCell>
        <mxCell id="-R9fpxJyPCpMS1VGoLr2-80" value="birth_year :integer" style="text;html=1;align=center;verticalAlign=middle;resizable=0;points=[];autosize=1;" vertex="1" parent="1">
          <mxGeometry x="10" y="240" width="110" height="20" as="geometry" />
        </mxCell>
        <mxCell id="-R9fpxJyPCpMS1VGoLr2-81" value="birth_month" style="text;html=1;align=center;verticalAlign=middle;resizable=0;points=[];autosize=1;" vertex="1" parent="1">
          <mxGeometry x="10" y="260" width="80" height="20" as="geometry" />
        </mxCell>
        <mxCell id="-R9fpxJyPCpMS1VGoLr2-82" value="birth_day" style="text;html=1;align=center;verticalAlign=middle;resizable=0;points=[];autosize=1;" vertex="1" parent="1">
          <mxGeometry x="10" y="280" width="60" height="20" as="geometry" />
        </mxCell>
        <mxCell id="-R9fpxJyPCpMS1VGoLr2-63" value="users" style="shape=table;startSize=30;container=1;collapsible=1;childLayout=tableLayout;fixedRows=1;rowLines=0;fontStyle=1;align=center;resizeLast=1;" vertex="1" parent="1">
          <mxGeometry x="-20" y="15" width="160" height="285" as="geometry" />
        </mxCell>
        <mxCell id="-R9fpxJyPCpMS1VGoLr2-64" value="" style="shape=partialRectangle;collapsible=0;dropTarget=0;pointerEvents=0;fillColor=none;top=0;left=0;bottom=1;right=0;points=[[0,0.5],[1,0.5]];portConstraint=eastwest;" vertex="1" parent="-R9fpxJyPCpMS1VGoLr2-63">
          <mxGeometry y="30" width="160" height="30" as="geometry" />
        </mxCell>
        <mxCell id="-R9fpxJyPCpMS1VGoLr2-65" value="PK" style="shape=partialRectangle;connectable=0;fillColor=none;top=0;left=0;bottom=0;right=0;fontStyle=1;overflow=hidden;" vertex="1" parent="-R9fpxJyPCpMS1VGoLr2-64">
          <mxGeometry width="30" height="30" as="geometry" />
        </mxCell>
        <mxCell id="-R9fpxJyPCpMS1VGoLr2-66" value="id" style="shape=partialRectangle;connectable=0;fillColor=none;top=0;left=0;bottom=0;right=0;align=left;spacingLeft=6;fontStyle=5;overflow=hidden;" vertex="1" parent="-R9fpxJyPCpMS1VGoLr2-64">
          <mxGeometry x="30" width="130" height="30" as="geometry" />
        </mxCell>
        <mxCell id="-R9fpxJyPCpMS1VGoLr2-67" value="" style="shape=partialRectangle;collapsible=0;dropTarget=0;pointerEvents=0;fillColor=none;top=0;left=0;bottom=0;right=0;points=[[0,0.5],[1,0.5]];portConstraint=eastwest;" vertex="1" parent="-R9fpxJyPCpMS1VGoLr2-63">
          <mxGeometry y="60" width="160" height="30" as="geometry" />
        </mxCell>
        <mxCell id="-R9fpxJyPCpMS1VGoLr2-68" value="" style="shape=partialRectangle;connectable=0;fillColor=none;top=0;left=0;bottom=0;right=0;editable=1;overflow=hidden;" vertex="1" parent="-R9fpxJyPCpMS1VGoLr2-67">
          <mxGeometry width="30" height="30" as="geometry" />
        </mxCell>
        <mxCell id="-R9fpxJyPCpMS1VGoLr2-69" value="nickname :string" style="shape=partialRectangle;connectable=0;fillColor=none;top=0;left=0;bottom=0;right=0;align=left;spacingLeft=6;overflow=hidden;" vertex="1" parent="-R9fpxJyPCpMS1VGoLr2-67">
          <mxGeometry x="30" width="130" height="30" as="geometry" />
        </mxCell>
        <mxCell id="-R9fpxJyPCpMS1VGoLr2-70" value="" style="shape=partialRectangle;collapsible=0;dropTarget=0;pointerEvents=0;fillColor=none;top=0;left=0;bottom=0;right=0;points=[[0,0.5],[1,0.5]];portConstraint=eastwest;" vertex="1" parent="-R9fpxJyPCpMS1VGoLr2-63">
          <mxGeometry y="90" width="160" height="30" as="geometry" />
        </mxCell>
        <mxCell id="-R9fpxJyPCpMS1VGoLr2-71" value="" style="shape=partialRectangle;connectable=0;fillColor=none;top=0;left=0;bottom=0;right=0;editable=1;overflow=hidden;" vertex="1" parent="-R9fpxJyPCpMS1VGoLr2-70">
          <mxGeometry width="30" height="30" as="geometry" />
        </mxCell>
        <mxCell id="-R9fpxJyPCpMS1VGoLr2-72" value="email :string" style="shape=partialRectangle;connectable=0;fillColor=none;top=0;left=0;bottom=0;right=0;align=left;spacingLeft=6;overflow=hidden;" vertex="1" parent="-R9fpxJyPCpMS1VGoLr2-70">
          <mxGeometry x="30" width="130" height="30" as="geometry" />
        </mxCell>
        <mxCell id="-R9fpxJyPCpMS1VGoLr2-73" value="" style="shape=partialRectangle;collapsible=0;dropTarget=0;pointerEvents=0;fillColor=none;top=0;left=0;bottom=0;right=0;points=[[0,0.5],[1,0.5]];portConstraint=eastwest;" vertex="1" parent="-R9fpxJyPCpMS1VGoLr2-63">
          <mxGeometry y="120" width="160" height="30" as="geometry" />
        </mxCell>
        <mxCell id="-R9fpxJyPCpMS1VGoLr2-74" value="" style="shape=partialRectangle;connectable=0;fillColor=none;top=0;left=0;bottom=0;right=0;editable=1;overflow=hidden;" vertex="1" parent="-R9fpxJyPCpMS1VGoLr2-73">
          <mxGeometry width="30" height="30" as="geometry" />
        </mxCell>
        <mxCell id="-R9fpxJyPCpMS1VGoLr2-75" value="password :string" style="shape=partialRectangle;connectable=0;fillColor=none;top=0;left=0;bottom=0;right=0;align=left;spacingLeft=6;overflow=hidden;" vertex="1" parent="-R9fpxJyPCpMS1VGoLr2-73">
          <mxGeometry x="30" width="130" height="30" as="geometry" />
        </mxCell>
        <mxCell id="-R9fpxJyPCpMS1VGoLr2-83" value="items" style="shape=table;startSize=30;container=1;collapsible=1;childLayout=tableLayout;fixedRows=1;rowLines=0;fontStyle=1;align=center;resizeLast=1;" vertex="1" parent="1">
          <mxGeometry x="360" y="15" width="190" height="285" as="geometry" />
        </mxCell>
        <mxCell id="-R9fpxJyPCpMS1VGoLr2-84" value="" style="shape=partialRectangle;collapsible=0;dropTarget=0;pointerEvents=0;fillColor=none;top=0;left=0;bottom=1;right=0;points=[[0,0.5],[1,0.5]];portConstraint=eastwest;" vertex="1" parent="-R9fpxJyPCpMS1VGoLr2-83">
          <mxGeometry y="30" width="190" height="30" as="geometry" />
        </mxCell>
        <mxCell id="-R9fpxJyPCpMS1VGoLr2-85" value="PK" style="shape=partialRectangle;connectable=0;fillColor=none;top=0;left=0;bottom=0;right=0;fontStyle=1;overflow=hidden;" vertex="1" parent="-R9fpxJyPCpMS1VGoLr2-84">
          <mxGeometry width="30" height="30" as="geometry" />
        </mxCell>
        <mxCell id="-R9fpxJyPCpMS1VGoLr2-86" value="id" style="shape=partialRectangle;connectable=0;fillColor=none;top=0;left=0;bottom=0;right=0;align=left;spacingLeft=6;fontStyle=5;overflow=hidden;" vertex="1" parent="-R9fpxJyPCpMS1VGoLr2-84">
          <mxGeometry x="30" width="160" height="30" as="geometry" />
        </mxCell>
        <mxCell id="-R9fpxJyPCpMS1VGoLr2-87" value="" style="shape=partialRectangle;collapsible=0;dropTarget=0;pointerEvents=0;fillColor=none;top=0;left=0;bottom=0;right=0;points=[[0,0.5],[1,0.5]];portConstraint=eastwest;" vertex="1" parent="-R9fpxJyPCpMS1VGoLr2-83">
          <mxGeometry y="60" width="190" height="30" as="geometry" />
        </mxCell>
        <mxCell id="-R9fpxJyPCpMS1VGoLr2-88" value="FK" style="shape=partialRectangle;connectable=0;fillColor=none;top=0;left=0;bottom=0;right=0;editable=1;overflow=hidden;" vertex="1" parent="-R9fpxJyPCpMS1VGoLr2-87">
          <mxGeometry width="30" height="30" as="geometry" />
        </mxCell>
        <mxCell id="-R9fpxJyPCpMS1VGoLr2-89" value="user_id :references" style="shape=partialRectangle;connectable=0;fillColor=none;top=0;left=0;bottom=0;right=0;align=left;spacingLeft=6;overflow=hidden;" vertex="1" parent="-R9fpxJyPCpMS1VGoLr2-87">
          <mxGeometry x="30" width="160" height="30" as="geometry" />
        </mxCell>
        <mxCell id="-R9fpxJyPCpMS1VGoLr2-90" value="" style="shape=partialRectangle;collapsible=0;dropTarget=0;pointerEvents=0;fillColor=none;top=0;left=0;bottom=0;right=0;points=[[0,0.5],[1,0.5]];portConstraint=eastwest;" vertex="1" parent="-R9fpxJyPCpMS1VGoLr2-83">
          <mxGeometry y="90" width="190" height="30" as="geometry" />
        </mxCell>
        <mxCell id="-R9fpxJyPCpMS1VGoLr2-91" value="" style="shape=partialRectangle;connectable=0;fillColor=none;top=0;left=0;bottom=0;right=0;editable=1;overflow=hidden;" vertex="1" parent="-R9fpxJyPCpMS1VGoLr2-90">
          <mxGeometry width="30" height="30" as="geometry" />
        </mxCell>
        <mxCell id="-R9fpxJyPCpMS1VGoLr2-92" value="name :string" style="shape=partialRectangle;connectable=0;fillColor=none;top=0;left=0;bottom=0;right=0;align=left;spacingLeft=6;overflow=hidden;" vertex="1" parent="-R9fpxJyPCpMS1VGoLr2-90">
          <mxGeometry x="30" width="160" height="30" as="geometry" />
        </mxCell>
        <mxCell id="-R9fpxJyPCpMS1VGoLr2-93" value="" style="shape=partialRectangle;collapsible=0;dropTarget=0;pointerEvents=0;fillColor=none;top=0;left=0;bottom=0;right=0;points=[[0,0.5],[1,0.5]];portConstraint=eastwest;" vertex="1" parent="-R9fpxJyPCpMS1VGoLr2-83">
          <mxGeometry y="120" width="190" height="30" as="geometry" />
        </mxCell>
        <mxCell id="-R9fpxJyPCpMS1VGoLr2-94" value="" style="shape=partialRectangle;connectable=0;fillColor=none;top=0;left=0;bottom=0;right=0;editable=1;overflow=hidden;" vertex="1" parent="-R9fpxJyPCpMS1VGoLr2-93">
          <mxGeometry width="30" height="30" as="geometry" />
        </mxCell>
        <mxCell id="-R9fpxJyPCpMS1VGoLr2-95" value="image :text" style="shape=partialRectangle;connectable=0;fillColor=none;top=0;left=0;bottom=0;right=0;align=left;spacingLeft=6;overflow=hidden;" vertex="1" parent="-R9fpxJyPCpMS1VGoLr2-93">
          <mxGeometry x="30" width="160" height="30" as="geometry" />
        </mxCell>
        <mxCell id="-R9fpxJyPCpMS1VGoLr2-96" value="description :text" style="text;html=1;align=center;verticalAlign=middle;resizable=0;points=[];autosize=1;" vertex="1" parent="1">
          <mxGeometry x="390" y="160" width="100" height="20" as="geometry" />
        </mxCell>
        <mxCell id="-R9fpxJyPCpMS1VGoLr2-97" value="price : integer" style="text;html=1;align=center;verticalAlign=middle;resizable=0;points=[];autosize=1;" vertex="1" parent="1">
          <mxGeometry x="390" y="180" width="90" height="20" as="geometry" />
        </mxCell>
        <mxCell id="-R9fpxJyPCpMS1VGoLr2-99" value="genre :integer" style="text;html=1;align=center;verticalAlign=middle;resizable=0;points=[];autosize=1;" vertex="1" parent="1">
          <mxGeometry x="390" y="200" width="90" height="20" as="geometry" />
        </mxCell>
        <mxCell id="-R9fpxJyPCpMS1VGoLr2-100" value="delivery_fee :integer" style="text;html=1;align=center;verticalAlign=middle;resizable=0;points=[];autosize=1;" vertex="1" parent="1">
          <mxGeometry x="390" y="220" width="120" height="20" as="geometry" />
        </mxCell>
        <mxCell id="-R9fpxJyPCpMS1VGoLr2-101" value="prefecture :integer" style="text;html=1;align=center;verticalAlign=middle;resizable=0;points=[];autosize=1;" vertex="1" parent="1">
          <mxGeometry x="390" y="240" width="110" height="20" as="geometry" />
        </mxCell>
        <mxCell id="-R9fpxJyPCpMS1VGoLr2-102" value="status :integer" style="text;html=1;align=center;verticalAlign=middle;resizable=0;points=[];autosize=1;" vertex="1" parent="1">
          <mxGeometry x="390" y="260" width="90" height="20" as="geometry" />
        </mxCell>
        <mxCell id="-R9fpxJyPCpMS1VGoLr2-103" value="delivery_day :integer" style="text;html=1;align=center;verticalAlign=middle;resizable=0;points=[];autosize=1;" vertex="1" parent="1">
          <mxGeometry x="385" y="280" width="130" height="20" as="geometry" />
        </mxCell>
        <mxCell id="-R9fpxJyPCpMS1VGoLr2-130" value="city :string" style="text;html=1;align=center;verticalAlign=middle;resizable=0;points=[];autosize=1;" vertex="1" parent="1">
          <mxGeometry x="400" y="500" width="70" height="20" as="geometry" />
        </mxCell>
        <mxCell id="-R9fpxJyPCpMS1VGoLr2-131" value="house_number :string" style="text;html=1;align=center;verticalAlign=middle;resizable=0;points=[];autosize=1;" vertex="1" parent="1">
          <mxGeometry x="400" y="520" width="130" height="20" as="geometry" />
        </mxCell>
        <mxCell id="-R9fpxJyPCpMS1VGoLr2-132" value="building :string" style="text;html=1;align=center;verticalAlign=middle;resizable=0;points=[];autosize=1;" vertex="1" parent="1">
          <mxGeometry x="400" y="540" width="90" height="20" as="geometry" />
        </mxCell>
        <mxCell id="-R9fpxJyPCpMS1VGoLr2-133" value="phone_number :string" style="text;html=1;align=center;verticalAlign=middle;resizable=0;points=[];autosize=1;" vertex="1" parent="1">
          <mxGeometry x="400" y="560" width="130" height="20" as="geometry" />
        </mxCell>
        <mxCell id="-R9fpxJyPCpMS1VGoLr2-138" value="" style="edgeStyle=entityRelationEdgeStyle;fontSize=12;html=1;endArrow=ERoneToMany;" edge="1" parent="1">
          <mxGeometry width="100" height="100" relative="1" as="geometry">
            <mxPoint x="140" y="180" as="sourcePoint" />
            <mxPoint x="360" y="180" as="targetPoint" />
          </mxGeometry>
        </mxCell>
        <mxCell id="-R9fpxJyPCpMS1VGoLr2-140" value="" style="edgeStyle=entityRelationEdgeStyle;fontSize=12;html=1;endArrow=ERoneToMany;entryX=0;entryY=0;entryDx=0;entryDy=0;entryPerimeter=0;exitX=0.5;exitY=1;exitDx=0;exitDy=0;" edge="1" parent="1" source="-R9fpxJyPCpMS1VGoLr2-63" target="-R9fpxJyPCpMS1VGoLr2-111">
          <mxGeometry width="100" height="100" relative="1" as="geometry">
            <mxPoint x="-20" y="300" as="sourcePoint" />
            <mxPoint x="550" y="290" as="targetPoint" />
          </mxGeometry>
        </mxCell>
        <mxCell id="-R9fpxJyPCpMS1VGoLr2-104" value="purchase" style="shape=table;startSize=30;container=1;collapsible=1;childLayout=tableLayout;fixedRows=1;rowLines=0;fontStyle=1;align=center;resizeLast=1;" vertex="1" parent="1">
          <mxGeometry x="10" y="460" width="180" height="130" as="geometry" />
        </mxCell>
        <mxCell id="-R9fpxJyPCpMS1VGoLr2-105" value="" style="shape=partialRectangle;collapsible=0;dropTarget=0;pointerEvents=0;fillColor=none;top=0;left=0;bottom=1;right=0;points=[[0,0.5],[1,0.5]];portConstraint=eastwest;" vertex="1" parent="-R9fpxJyPCpMS1VGoLr2-104">
          <mxGeometry y="30" width="180" height="30" as="geometry" />
        </mxCell>
        <mxCell id="-R9fpxJyPCpMS1VGoLr2-106" value="PK" style="shape=partialRectangle;connectable=0;fillColor=none;top=0;left=0;bottom=0;right=0;fontStyle=1;overflow=hidden;" vertex="1" parent="-R9fpxJyPCpMS1VGoLr2-105">
          <mxGeometry width="30" height="30" as="geometry" />
        </mxCell>
        <mxCell id="-R9fpxJyPCpMS1VGoLr2-107" value="id" style="shape=partialRectangle;connectable=0;fillColor=none;top=0;left=0;bottom=0;right=0;align=left;spacingLeft=6;fontStyle=5;overflow=hidden;" vertex="1" parent="-R9fpxJyPCpMS1VGoLr2-105">
          <mxGeometry x="30" width="150" height="30" as="geometry" />
        </mxCell>
        <mxCell id="-R9fpxJyPCpMS1VGoLr2-111" value="" style="shape=partialRectangle;collapsible=0;dropTarget=0;pointerEvents=0;fillColor=none;top=0;left=0;bottom=0;right=0;points=[[0,0.5],[1,0.5]];portConstraint=eastwest;" vertex="1" parent="-R9fpxJyPCpMS1VGoLr2-104">
          <mxGeometry y="60" width="180" height="30" as="geometry" />
        </mxCell>
        <mxCell id="-R9fpxJyPCpMS1VGoLr2-112" value="FK" style="shape=partialRectangle;connectable=0;fillColor=none;top=0;left=0;bottom=0;right=0;editable=1;overflow=hidden;" vertex="1" parent="-R9fpxJyPCpMS1VGoLr2-111">
          <mxGeometry width="30" height="30" as="geometry" />
        </mxCell>
        <mxCell id="-R9fpxJyPCpMS1VGoLr2-113" value="user_id" style="shape=partialRectangle;connectable=0;fillColor=none;top=0;left=0;bottom=0;right=0;align=left;spacingLeft=6;overflow=hidden;" vertex="1" parent="-R9fpxJyPCpMS1VGoLr2-111">
          <mxGeometry x="30" width="150" height="30" as="geometry" />
        </mxCell>
        <mxCell id="-R9fpxJyPCpMS1VGoLr2-114" value="" style="shape=partialRectangle;collapsible=0;dropTarget=0;pointerEvents=0;fillColor=none;top=0;left=0;bottom=0;right=0;points=[[0,0.5],[1,0.5]];portConstraint=eastwest;" vertex="1" parent="-R9fpxJyPCpMS1VGoLr2-104">
          <mxGeometry y="90" width="180" height="30" as="geometry" />
        </mxCell>
        <mxCell id="-R9fpxJyPCpMS1VGoLr2-115" value="FK" style="shape=partialRectangle;connectable=0;fillColor=none;top=0;left=0;bottom=0;right=0;editable=1;overflow=hidden;" vertex="1" parent="-R9fpxJyPCpMS1VGoLr2-114">
          <mxGeometry width="30" height="30" as="geometry" />
        </mxCell>
        <mxCell id="-R9fpxJyPCpMS1VGoLr2-116" value="item_id" style="shape=partialRectangle;connectable=0;fillColor=none;top=0;left=0;bottom=0;right=0;align=left;spacingLeft=6;overflow=hidden;" vertex="1" parent="-R9fpxJyPCpMS1VGoLr2-114">
          <mxGeometry x="30" width="150" height="30" as="geometry" />
        </mxCell>
        <mxCell id="-R9fpxJyPCpMS1VGoLr2-141" value="" style="edgeStyle=entityRelationEdgeStyle;fontSize=12;html=1;endArrow=ERmandOne;startArrow=ERmandOne;" edge="1" parent="1" source="-R9fpxJyPCpMS1VGoLr2-105">
          <mxGeometry width="100" height="100" relative="1" as="geometry">
            <mxPoint x="260" y="400" as="sourcePoint" />
            <mxPoint x="360" y="240" as="targetPoint" />
          </mxGeometry>
        </mxCell>
        <mxCell id="-R9fpxJyPCpMS1VGoLr2-117" value="delivery_address" style="shape=table;startSize=30;container=1;collapsible=1;childLayout=tableLayout;fixedRows=1;rowLines=0;fontStyle=1;align=center;resizeLast=1;" vertex="1" parent="1">
          <mxGeometry x="370" y="360" width="180" height="240" as="geometry" />
        </mxCell>
        <mxCell id="-R9fpxJyPCpMS1VGoLr2-118" value="" style="shape=partialRectangle;collapsible=0;dropTarget=0;pointerEvents=0;fillColor=none;top=0;left=0;bottom=1;right=0;points=[[0,0.5],[1,0.5]];portConstraint=eastwest;" vertex="1" parent="-R9fpxJyPCpMS1VGoLr2-117">
          <mxGeometry y="30" width="180" height="30" as="geometry" />
        </mxCell>
        <mxCell id="-R9fpxJyPCpMS1VGoLr2-119" value="PK" style="shape=partialRectangle;connectable=0;fillColor=none;top=0;left=0;bottom=0;right=0;fontStyle=1;overflow=hidden;" vertex="1" parent="-R9fpxJyPCpMS1VGoLr2-118">
          <mxGeometry width="30" height="30" as="geometry" />
        </mxCell>
        <mxCell id="-R9fpxJyPCpMS1VGoLr2-120" value="id" style="shape=partialRectangle;connectable=0;fillColor=none;top=0;left=0;bottom=0;right=0;align=left;spacingLeft=6;fontStyle=5;overflow=hidden;" vertex="1" parent="-R9fpxJyPCpMS1VGoLr2-118">
          <mxGeometry x="30" width="150" height="30" as="geometry" />
        </mxCell>
        <mxCell id="-R9fpxJyPCpMS1VGoLr2-121" value="" style="shape=partialRectangle;collapsible=0;dropTarget=0;pointerEvents=0;fillColor=none;top=0;left=0;bottom=0;right=0;points=[[0,0.5],[1,0.5]];portConstraint=eastwest;" vertex="1" parent="-R9fpxJyPCpMS1VGoLr2-117">
          <mxGeometry y="60" width="180" height="30" as="geometry" />
        </mxCell>
        <mxCell id="-R9fpxJyPCpMS1VGoLr2-122" value="FK" style="shape=partialRectangle;connectable=0;fillColor=none;top=0;left=0;bottom=0;right=0;editable=1;overflow=hidden;" vertex="1" parent="-R9fpxJyPCpMS1VGoLr2-121">
          <mxGeometry width="30" height="30" as="geometry" />
        </mxCell>
        <mxCell id="-R9fpxJyPCpMS1VGoLr2-123" value="purchase_id :references" style="shape=partialRectangle;connectable=0;fillColor=none;top=0;left=0;bottom=0;right=0;align=left;spacingLeft=6;overflow=hidden;" vertex="1" parent="-R9fpxJyPCpMS1VGoLr2-121">
          <mxGeometry x="30" width="150" height="30" as="geometry" />
        </mxCell>
        <mxCell id="-R9fpxJyPCpMS1VGoLr2-127" value="" style="shape=partialRectangle;collapsible=0;dropTarget=0;pointerEvents=0;fillColor=none;top=0;left=0;bottom=0;right=0;points=[[0,0.5],[1,0.5]];portConstraint=eastwest;" vertex="1" parent="-R9fpxJyPCpMS1VGoLr2-117">
          <mxGeometry y="90" width="180" height="30" as="geometry" />
        </mxCell>
        <mxCell id="-R9fpxJyPCpMS1VGoLr2-128" value="" style="shape=partialRectangle;connectable=0;fillColor=none;top=0;left=0;bottom=0;right=0;editable=1;overflow=hidden;" vertex="1" parent="-R9fpxJyPCpMS1VGoLr2-127">
          <mxGeometry width="30" height="30" as="geometry" />
        </mxCell>
        <mxCell id="-R9fpxJyPCpMS1VGoLr2-129" value="postal_code :string" style="shape=partialRectangle;connectable=0;fillColor=none;top=0;left=0;bottom=0;right=0;align=left;spacingLeft=6;overflow=hidden;" vertex="1" parent="-R9fpxJyPCpMS1VGoLr2-127">
          <mxGeometry x="30" width="150" height="30" as="geometry" />
        </mxCell>
        <mxCell id="-R9fpxJyPCpMS1VGoLr2-124" value="" style="shape=partialRectangle;collapsible=0;dropTarget=0;pointerEvents=0;fillColor=none;top=0;left=0;bottom=0;right=0;points=[[0,0.5],[1,0.5]];portConstraint=eastwest;" vertex="1" parent="-R9fpxJyPCpMS1VGoLr2-117">
          <mxGeometry y="120" width="180" height="30" as="geometry" />
        </mxCell>
        <mxCell id="-R9fpxJyPCpMS1VGoLr2-125" value="" style="shape=partialRectangle;connectable=0;fillColor=none;top=0;left=0;bottom=0;right=0;editable=1;overflow=hidden;" vertex="1" parent="-R9fpxJyPCpMS1VGoLr2-124">
          <mxGeometry width="30" height="30" as="geometry" />
        </mxCell>
        <mxCell id="-R9fpxJyPCpMS1VGoLr2-126" value="purefecture :integer" style="shape=partialRectangle;connectable=0;fillColor=none;top=0;left=0;bottom=0;right=0;align=left;spacingLeft=6;overflow=hidden;" vertex="1" parent="-R9fpxJyPCpMS1VGoLr2-124">
          <mxGeometry x="30" width="150" height="30" as="geometry" />
        </mxCell>
        <mxCell id="-R9fpxJyPCpMS1VGoLr2-142" value="" style="edgeStyle=entityRelationEdgeStyle;fontSize=12;html=1;endArrow=ERmandOne;startArrow=ERmandOne;exitX=1;exitY=0.5;exitDx=0;exitDy=0;" edge="1" parent="1" source="-R9fpxJyPCpMS1VGoLr2-111">
          <mxGeometry width="100" height="100" relative="1" as="geometry">
            <mxPoint x="450" y="390" as="sourcePoint" />
            <mxPoint x="370" y="535" as="targetPoint" />
          </mxGeometry>
        </mxCell>
      </root>
    </mxGraphModel>
  </diagram>
</mxfile>
